<svg xmlns="http://www.w3.org/2000/svg" xmlns:xlink="http://www.w3.org/1999/xlink" width="500" zoomAndPan="magnify" viewBox="0 0 375 374.999991" height="500" preserveAspectRatio="xMidYMid meet" version="1.0"><defs><g/><clipPath id="8ff5e7d0bc"><path d="M 53 133 L 150.589844 133 L 150.589844 243.625 L 53 243.625 Z M 53 133 " clip-rule="nonzero"/></clipPath></defs><g clip-path="url(#8ff5e7d0bc)"><path fill="#ffffff" d="M 142.90625 139.945312 C 138.53125 135.777344 132.667969 133.449219 126.625 133.472656 C 120.382812 133.496094 114.519531 135.9375 110.105469 140.351562 L 101.683594 148.769531 L 93.476562 140.5625 C 84.335938 131.421875 69.445312 131.132812 60.214844 140.1875 C 50.890625 149.332031 50.835938 164.355469 60.046875 173.566406 L 104.625 218.144531 C 109.714844 223.234375 109.953125 231.519531 104.964844 236.699219 C 99.859375 242.003906 91.386719 242.066406 86.203125 236.886719 L 75.160156 225.84375 C 74.695312 225.378906 74.648438 224.640625 75.046875 224.113281 C 76.679688 221.96875 77.582031 219.246094 77.378906 216.308594 C 76.980469 210.511719 72.242188 205.847656 66.4375 205.546875 C 59.714844 205.195312 54.140625 210.609375 54.230469 217.273438 C 54.3125 223.449219 59.347656 228.546875 65.519531 228.699219 C 67.511719 228.75 69.390625 228.296875 71.046875 227.457031 C 71.546875 227.199219 72.160156 227.308594 72.554688 227.707031 L 83.964844 239.117188 C 87.140625 242.292969 91.3125 243.878906 95.488281 243.878906 C 99.660156 243.878906 103.835938 242.292969 107.011719 239.117188 C 113.363281 232.761719 113.363281 222.421875 107.011719 216.070312 L 62.28125 171.335938 C 54.355469 163.410156 54.355469 150.511719 62.28125 142.585938 C 70.210938 134.660156 83.109375 134.660156 91.03125 142.585938 L 100.527344 152.082031 C 100.847656 152.398438 101.265625 152.550781 101.683594 152.539062 C 102.105469 152.550781 102.523438 152.398438 102.84375 152.082031 L 112.148438 142.773438 C 116.007812 138.914062 121.21875 136.640625 126.671875 136.632812 C 132.121094 136.621094 137.242188 138.738281 141.089844 142.585938 C 144.9375 146.433594 147.050781 151.550781 147.042969 156.992188 C 147.035156 162.453125 144.761719 167.664062 140.902344 171.527344 L 137.894531 174.535156 C 137.648438 174.78125 137.308594 174.921875 136.960938 174.921875 L 127.996094 174.921875 C 127.496094 174.921875 127.039062 174.640625 126.816406 174.195312 L 122.488281 165.535156 C 122.003906 164.5625 120.621094 164.5625 120.136719 165.535156 L 112.691406 180.40625 C 112.207031 181.378906 110.824219 181.378906 110.339844 180.40625 L 107.800781 175.320312 C 107.316406 174.351562 105.929688 174.351562 105.449219 175.320312 L 102.90625 180.40625 C 102.421875 181.375 101.039062 181.375 100.554688 180.40625 L 93.117188 165.53125 C 92.632812 164.558594 91.25 164.558594 90.765625 165.53125 L 86.433594 174.191406 C 86.210938 174.636719 85.753906 174.917969 85.257812 174.917969 L 77.324219 174.917969 C 76.457031 174.917969 75.707031 175.582031 75.679688 176.449219 C 75.652344 177.34375 76.367188 178.074219 77.257812 178.074219 L 87.210938 178.074219 C 87.707031 178.074219 88.164062 177.792969 88.386719 177.347656 L 90.765625 172.589844 C 91.25 171.617188 92.632812 171.617188 93.117188 172.589844 L 100.554688 187.464844 C 101.039062 188.433594 102.421875 188.433594 102.90625 187.464844 L 105.449219 182.378906 C 105.929688 181.410156 107.316406 181.410156 107.800781 182.378906 L 110.339844 187.464844 C 110.824219 188.4375 112.207031 188.4375 112.691406 187.464844 L 120.128906 172.589844 C 120.613281 171.621094 122 171.621094 122.484375 172.589844 L 124.863281 177.351562 C 125.085938 177.796875 125.542969 178.078125 126.039062 178.078125 L 138.160156 178.078125 C 138.257812 178.078125 138.351562 178.066406 138.445312 178.050781 C 138.449219 178.050781 138.457031 178.046875 138.460938 178.046875 C 138.554688 178.027344 138.648438 178.003906 138.734375 177.96875 C 138.742188 177.964844 138.75 177.964844 138.757812 177.960938 C 138.84375 177.925781 138.929688 177.878906 139.007812 177.828125 C 139.015625 177.824219 139.023438 177.820312 139.03125 177.816406 C 139.113281 177.757812 139.195312 177.695312 139.269531 177.625 C 139.269531 177.621094 139.269531 177.621094 139.273438 177.617188 L 143.09375 173.796875 C 147.613281 169.277344 150.25 163.15625 150.203125 156.761719 C 150.148438 150.371094 147.558594 144.378906 142.90625 139.945312 Z M 57.390625 217.117188 C 57.390625 212.46875 61.171875 208.6875 65.816406 208.6875 C 70.464844 208.6875 74.246094 212.46875 74.246094 217.117188 C 74.246094 221.765625 70.464844 225.546875 65.816406 225.546875 C 61.171875 225.546875 57.390625 221.765625 57.390625 217.117188 Z M 57.390625 217.117188 " fill-opacity="1" fill-rule="nonzero"/></g><g fill="#ffffff" fill-opacity="1"><g transform="translate(156.77122, 182.999988)"><g><path d="M 12.03125 -22.40625 C 14.882812 -22.40625 17.125 -21.71875 18.75 -20.34375 C 20.375 -18.976562 21.1875 -17.101562 21.1875 -14.71875 C 21.1875 -12.332031 20.375 -10.460938 18.75 -9.109375 C 17.125 -7.753906 14.882812 -7.078125 12.03125 -7.078125 L 6.015625 -7.078125 L 6.015625 0 L 3.640625 0 L 3.640625 -22.40625 Z M 11.96875 -9.15625 C 14.1875 -9.15625 15.878906 -9.640625 17.046875 -10.609375 C 18.222656 -11.578125 18.8125 -12.945312 18.8125 -14.71875 C 18.8125 -16.53125 18.222656 -17.921875 17.046875 -18.890625 C 15.878906 -19.867188 14.1875 -20.359375 11.96875 -20.359375 L 6.015625 -20.359375 L 6.015625 -9.15625 Z M 11.96875 -9.15625 "/></g></g></g><g fill="#ffffff" fill-opacity="1"><g transform="translate(179.74157, 182.999988)"><g><path d="M 17.703125 -5.984375 L 5.21875 -5.984375 L 2.53125 0 L 0.0625 0 L 10.296875 -22.40625 L 12.640625 -22.40625 L 22.875 0 L 20.390625 0 Z M 16.828125 -7.90625 L 11.453125 -19.9375 L 6.078125 -7.90625 Z M 16.828125 -7.90625 "/></g></g></g><g fill="#ffffff" fill-opacity="1"><g transform="translate(202.679935, 182.999988)"><g><path d="M 8 -20.359375 L 0.125 -20.359375 L 0.125 -22.40625 L 18.234375 -22.40625 L 18.234375 -20.359375 L 10.375 -20.359375 L 10.375 0 L 8 0 Z M 8 -20.359375 "/></g></g></g><g fill="#ffffff" fill-opacity="1"><g transform="translate(221.043421, 182.999988)"><g><path d="M 3.640625 -22.40625 L 6.015625 -22.40625 L 6.015625 0 L 3.640625 0 Z M 3.640625 -22.40625 "/></g></g></g><g fill="#ffffff" fill-opacity="1"><g transform="translate(230.705049, 182.999988)"><g><path d="M 19.484375 -2.046875 L 19.484375 0 L 3.640625 0 L 3.640625 -22.40625 L 19.015625 -22.40625 L 19.015625 -20.359375 L 6.015625 -20.359375 L 6.015625 -12.390625 L 17.59375 -12.390625 L 17.59375 -10.375 L 6.015625 -10.375 L 6.015625 -2.046875 Z M 19.484375 -2.046875 "/></g></g></g><g fill="#ffffff" fill-opacity="1"><g transform="translate(252.107788, 182.999988)"><g><path d="M 22.375 -22.40625 L 22.375 0 L 20.421875 0 L 6.015625 -18.171875 L 6.015625 0 L 3.640625 0 L 3.640625 -22.40625 L 5.59375 -22.40625 L 20.03125 -4.21875 L 20.03125 -22.40625 Z M 22.375 -22.40625 "/></g></g></g><g fill="#ffffff" fill-opacity="1"><g transform="translate(278.117392, 182.999988)"><g><path d="M 8 -20.359375 L 0.125 -20.359375 L 0.125 -22.40625 L 18.234375 -22.40625 L 18.234375 -20.359375 L 10.375 -20.359375 L 10.375 0 L 8 0 Z M 8 -20.359375 "/></g></g></g><g fill="#ffffff" fill-opacity="1"><g transform="translate(156.77122, 214.499986)"><g><path d="M 13.375 0.1875 C 11.15625 0.1875 9.15625 -0.300781 7.375 -1.28125 C 5.59375 -2.257812 4.191406 -3.617188 3.171875 -5.359375 C 2.160156 -7.097656 1.65625 -9.046875 1.65625 -11.203125 C 1.65625 -13.359375 2.160156 -15.300781 3.171875 -17.03125 C 4.191406 -18.769531 5.597656 -20.128906 7.390625 -21.109375 C 9.179688 -22.097656 11.1875 -22.59375 13.40625 -22.59375 C 15.070312 -22.59375 16.609375 -22.3125 18.015625 -21.75 C 19.421875 -21.195312 20.613281 -20.390625 21.59375 -19.328125 L 20.09375 -17.828125 C 18.34375 -19.597656 16.132812 -20.484375 13.46875 -20.484375 C 11.695312 -20.484375 10.085938 -20.078125 8.640625 -19.265625 C 7.191406 -18.453125 6.054688 -17.34375 5.234375 -15.9375 C 4.410156 -14.53125 4 -12.953125 4 -11.203125 C 4 -9.453125 4.410156 -7.875 5.234375 -6.46875 C 6.054688 -5.0625 7.191406 -3.953125 8.640625 -3.140625 C 10.085938 -2.328125 11.695312 -1.921875 13.46875 -1.921875 C 16.15625 -1.921875 18.363281 -2.816406 20.09375 -4.609375 L 21.59375 -3.109375 C 20.613281 -2.035156 19.414062 -1.21875 18 -0.65625 C 16.582031 -0.09375 15.039062 0.1875 13.375 0.1875 Z M 13.375 0.1875 "/></g></g></g><g fill="#ffffff" fill-opacity="1"><g transform="translate(179.773568, 214.499986)"><g><path d="M 18.9375 0 L 13.828125 -7.203125 C 13.242188 -7.140625 12.644531 -7.109375 12.03125 -7.109375 L 6.015625 -7.109375 L 6.015625 0 L 3.640625 0 L 3.640625 -22.40625 L 12.03125 -22.40625 C 14.882812 -22.40625 17.125 -21.71875 18.75 -20.34375 C 20.375 -18.976562 21.1875 -17.101562 21.1875 -14.71875 C 21.1875 -12.96875 20.742188 -11.488281 19.859375 -10.28125 C 18.972656 -9.082031 17.707031 -8.21875 16.0625 -7.6875 L 21.53125 0 Z M 11.96875 -9.125 C 14.1875 -9.125 15.878906 -9.613281 17.046875 -10.59375 C 18.222656 -11.570312 18.8125 -12.945312 18.8125 -14.71875 C 18.8125 -16.53125 18.222656 -17.921875 17.046875 -18.890625 C 15.878906 -19.867188 14.1875 -20.359375 11.96875 -20.359375 L 6.015625 -20.359375 L 6.015625 -9.125 Z M 11.96875 -9.125 "/></g></g></g><g fill="#ffffff" fill-opacity="1"><g transform="translate(202.903885, 214.499986)"><g><path d="M 19.484375 -2.046875 L 19.484375 0 L 3.640625 0 L 3.640625 -22.40625 L 19.015625 -22.40625 L 19.015625 -20.359375 L 6.015625 -20.359375 L 6.015625 -12.390625 L 17.59375 -12.390625 L 17.59375 -10.375 L 6.015625 -10.375 L 6.015625 -2.046875 Z M 19.484375 -2.046875 "/></g></g></g><g fill="#ffffff" fill-opacity="1"><g transform="translate(224.306624, 214.499986)"><g><path d="M 9.828125 0.1875 C 8.160156 0.1875 6.5625 -0.078125 5.03125 -0.609375 C 3.507812 -1.140625 2.332031 -1.84375 1.5 -2.71875 L 2.4375 -4.546875 C 3.238281 -3.734375 4.3125 -3.078125 5.65625 -2.578125 C 7.007812 -2.078125 8.398438 -1.828125 9.828125 -1.828125 C 11.828125 -1.828125 13.328125 -2.191406 14.328125 -2.921875 C 15.335938 -3.660156 15.84375 -4.617188 15.84375 -5.796875 C 15.84375 -6.691406 15.566406 -7.40625 15.015625 -7.9375 C 14.472656 -8.46875 13.804688 -8.875 13.015625 -9.15625 C 12.234375 -9.445312 11.140625 -9.765625 9.734375 -10.109375 C 8.046875 -10.535156 6.695312 -10.945312 5.6875 -11.34375 C 4.6875 -11.738281 3.828125 -12.34375 3.109375 -13.15625 C 2.398438 -13.96875 2.046875 -15.066406 2.046875 -16.453125 C 2.046875 -17.578125 2.34375 -18.601562 2.9375 -19.53125 C 3.539062 -20.457031 4.457031 -21.195312 5.6875 -21.75 C 6.925781 -22.3125 8.460938 -22.59375 10.296875 -22.59375 C 11.578125 -22.59375 12.832031 -22.414062 14.0625 -22.0625 C 15.289062 -21.707031 16.351562 -21.222656 17.25 -20.609375 L 16.453125 -18.71875 C 15.515625 -19.332031 14.507812 -19.796875 13.4375 -20.109375 C 12.375 -20.421875 11.328125 -20.578125 10.296875 -20.578125 C 8.335938 -20.578125 6.863281 -20.195312 5.875 -19.4375 C 4.882812 -18.675781 4.390625 -17.703125 4.390625 -16.515625 C 4.390625 -15.617188 4.660156 -14.894531 5.203125 -14.34375 C 5.742188 -13.800781 6.425781 -13.382812 7.25 -13.09375 C 8.070312 -12.8125 9.175781 -12.5 10.5625 -12.15625 C 12.207031 -11.75 13.535156 -11.347656 14.546875 -10.953125 C 15.554688 -10.566406 16.410156 -9.972656 17.109375 -9.171875 C 17.816406 -8.367188 18.171875 -7.285156 18.171875 -5.921875 C 18.171875 -4.785156 17.867188 -3.753906 17.265625 -2.828125 C 16.660156 -1.898438 15.726562 -1.164062 14.46875 -0.625 C 13.207031 -0.0820312 11.660156 0.1875 9.828125 0.1875 Z M 9.828125 0.1875 "/></g></g></g><g fill="#ffffff" fill-opacity="1"><g transform="translate(243.981786, 214.499986)"><g><path d="M 8 -20.359375 L 0.125 -20.359375 L 0.125 -22.40625 L 18.234375 -22.40625 L 18.234375 -20.359375 L 10.375 -20.359375 L 10.375 0 L 8 0 Z M 8 -20.359375 "/></g></g></g></svg>