<svg xmlns="http://www.w3.org/2000/svg" xmlns:xlink="http://www.w3.org/1999/xlink" width="500" zoomAndPan="magnify" viewBox="0 0 375 374.999991" height="500" preserveAspectRatio="xMidYMid meet" version="1.0"><defs><g/><clipPath id="cbe7ccfd75"><path d="M 150 130.40625 L 225 130.40625 L 225 202.40625 L 150 202.40625 Z M 150 130.40625 " clip-rule="nonzero"/></clipPath></defs><rect x="-37.5" width="450" fill="#ffffff" y="-37.499999" height="449.999989" fill-opacity="1"/><rect x="-37.5" width="450" fill="#51989b" y="-37.499999" height="449.999989" fill-opacity="1"/><g clip-path="url(#cbe7ccfd75)"><path fill="#ffffff" d="M 221.511719 174.324219 C 219.984375 174.324219 218.703125 175.3125 218.234375 176.683594 L 213.820312 176.683594 L 211.933594 173.566406 C 211.671875 173.132812 211.183594 172.898438 210.683594 172.957031 C 210.179688 173.015625 209.761719 173.359375 209.609375 173.839844 L 208.1875 178.269531 L 204.726562 157.402344 C 204.625 156.761719 204.042969 156.300781 203.40625 156.332031 C 202.757812 156.359375 202.234375 156.867188 202.179688 157.511719 L 199.550781 190.679688 L 196.464844 173.050781 C 196.363281 172.480469 195.894531 172.046875 195.320312 171.992188 C 194.738281 171.933594 194.203125 172.273438 193.996094 172.816406 L 192.105469 177.8125 L 190.894531 175.332031 C 190.679688 174.890625 190.230469 174.613281 189.742188 174.613281 L 178.722656 174.613281 C 178.015625 174.613281 177.441406 175.1875 177.4375 175.894531 L 177.4375 186.722656 C 177.4375 193.535156 171.890625 199.082031 165.078125 199.082031 L 164.933594 199.082031 C 158.121094 199.082031 152.574219 193.539062 152.574219 186.722656 L 152.574219 165.003906 L 180.007812 165.003906 L 180.007812 145.421875 C 180.003906 137.191406 173.308594 130.496094 165.074219 130.496094 L 164.929688 130.496094 C 156.699219 130.496094 150 137.191406 150 145.421875 L 150 186.726562 C 150 194.957031 156.699219 201.652344 164.933594 201.652344 L 165.078125 201.652344 C 173.308594 201.652344 180.007812 194.957031 180.007812 186.726562 L 180.007812 177.183594 L 188.9375 177.183594 L 191.105469 181.609375 C 191.332031 182.066406 191.804688 182.34375 192.320312 182.324219 C 192.832031 182.300781 193.28125 181.976562 193.464844 181.496094 L 194.742188 178.113281 L 198.765625 201.109375 C 198.871094 201.726562 199.410156 202.171875 200.03125 202.171875 C 200.050781 202.171875 200.070312 202.171875 200.089844 202.171875 C 200.738281 202.140625 201.261719 201.636719 201.308594 200.992188 L 203.910156 168.199219 L 206.515625 183.929688 C 206.613281 184.515625 207.097656 184.957031 207.691406 185.003906 C 208.289062 185.042969 208.828125 184.679688 209.007812 184.113281 L 211.195312 177.3125 L 211.996094 178.632812 C 212.230469 179.019531 212.648438 179.253906 213.097656 179.253906 L 218.363281 179.253906 C 218.914062 180.445312 220.113281 181.277344 221.511719 181.277344 C 223.433594 181.277344 224.988281 179.71875 224.988281 177.796875 C 224.988281 175.878906 223.433594 174.324219 221.511719 174.324219 Z M 221.511719 174.324219 " fill-opacity="1" fill-rule="nonzero"/></g><g fill="#ffffff" fill-opacity="1"><g transform="translate(86.094897, 229.041357)"><g><path d="M 9.546875 -17.5 C 11.066406 -17.5 12.390625 -17.25 13.515625 -16.75 C 14.640625 -16.25 15.5 -15.53125 16.09375 -14.59375 C 16.695312 -13.664062 17 -12.5625 17 -11.28125 C 17 -10.007812 16.695312 -8.898438 16.09375 -7.953125 C 15.5 -7.015625 14.640625 -6.296875 13.515625 -5.796875 C 12.390625 -5.296875 11.066406 -5.046875 9.546875 -5.046875 L 5.59375 -5.046875 L 5.59375 0 L 2.34375 0 L 2.34375 -17.5 Z M 9.40625 -7.796875 C 10.820312 -7.796875 11.894531 -8.09375 12.625 -8.6875 C 13.351562 -9.289062 13.71875 -10.15625 13.71875 -11.28125 C 13.71875 -12.394531 13.351562 -13.25 12.625 -13.84375 C 11.894531 -14.445312 10.820312 -14.75 9.40625 -14.75 L 5.59375 -14.75 L 5.59375 -7.796875 Z M 9.40625 -7.796875 "/></g></g></g><g fill="#ffffff" fill-opacity="1"><g transform="translate(104.242021, 229.041357)"><g><path d="M 13.703125 -4.046875 L 4.953125 -4.046875 L 3.21875 0 L -0.125 0 L 7.75 -17.5 L 10.953125 -17.5 L 18.84375 0 L 15.453125 0 Z M 12.625 -6.59375 L 9.328125 -14.25 L 6.046875 -6.59375 Z M 12.625 -6.59375 "/></g></g></g><g fill="#ffffff" fill-opacity="1"><g transform="translate(122.964051, 229.041357)"><g><path d="M 5.90625 -14.75 L 0.09375 -14.75 L 0.09375 -17.5 L 14.953125 -17.5 L 14.953125 -14.75 L 9.15625 -14.75 L 9.15625 0 L 5.90625 0 Z M 5.90625 -14.75 "/></g></g></g><g fill="#ffffff" fill-opacity="1"><g transform="translate(138.011669, 229.041357)"><g><path d="M 2.34375 -17.5 L 5.59375 -17.5 L 5.59375 0 L 2.34375 0 Z M 2.34375 -17.5 "/></g></g></g><g fill="#ffffff" fill-opacity="1"><g transform="translate(145.985408, 229.041357)"><g><path d="M 15.46875 -2.71875 L 15.46875 0 L 2.34375 0 L 2.34375 -17.5 L 15.125 -17.5 L 15.125 -14.78125 L 5.59375 -14.78125 L 5.59375 -10.21875 L 14.046875 -10.21875 L 14.046875 -7.546875 L 5.59375 -7.546875 L 5.59375 -2.71875 Z M 15.46875 -2.71875 "/></g></g></g><g fill="#ffffff" fill-opacity="1"><g transform="translate(162.732759, 229.041357)"><g><path d="M 17.90625 -17.5 L 17.90625 0 L 15.21875 0 L 5.578125 -11.84375 L 5.578125 0 L 2.34375 0 L 2.34375 -17.5 L 5.03125 -17.5 L 14.671875 -5.65625 L 14.671875 -17.5 Z M 17.90625 -17.5 "/></g></g></g><g fill="#ffffff" fill-opacity="1"><g transform="translate(182.979554, 229.041357)"><g><path d="M 5.90625 -14.75 L 0.09375 -14.75 L 0.09375 -17.5 L 14.953125 -17.5 L 14.953125 -14.75 L 9.15625 -14.75 L 9.15625 0 L 5.90625 0 Z M 5.90625 -14.75 "/></g></g></g><g fill="#ffffff" fill-opacity="1"><g transform="translate(198.027172, 229.041357)"><g/></g></g><g fill="#ffffff" fill-opacity="1"><g transform="translate(204.926082, 229.041357)"><g><path d="M 10.453125 0.25 C 8.679688 0.25 7.082031 -0.132812 5.65625 -0.90625 C 4.238281 -1.6875 3.125 -2.757812 2.3125 -4.125 C 1.5 -5.488281 1.09375 -7.03125 1.09375 -8.75 C 1.09375 -10.46875 1.5 -12.007812 2.3125 -13.375 C 3.132812 -14.738281 4.257812 -15.804688 5.6875 -16.578125 C 7.113281 -17.359375 8.707031 -17.75 10.46875 -17.75 C 11.90625 -17.75 13.210938 -17.5 14.390625 -17 C 15.578125 -16.5 16.582031 -15.773438 17.40625 -14.828125 L 15.296875 -12.84375 C 14.035156 -14.21875 12.476562 -14.90625 10.625 -14.90625 C 9.425781 -14.90625 8.347656 -14.640625 7.390625 -14.109375 C 6.441406 -13.585938 5.703125 -12.859375 5.171875 -11.921875 C 4.640625 -10.992188 4.375 -9.9375 4.375 -8.75 C 4.375 -7.5625 4.640625 -6.5 5.171875 -5.5625 C 5.703125 -4.632812 6.441406 -3.90625 7.390625 -3.375 C 8.347656 -2.851562 9.425781 -2.59375 10.625 -2.59375 C 12.476562 -2.59375 14.035156 -3.285156 15.296875 -4.671875 L 17.40625 -2.671875 C 16.582031 -1.722656 15.570312 -1 14.375 -0.5 C 13.1875 0 11.878906 0.25 10.453125 0.25 Z M 10.453125 0.25 "/></g></g></g><g fill="#ffffff" fill-opacity="1"><g transform="translate(223.0982, 229.041357)"><g><path d="M 13.796875 0 L 10.21875 -5.125 C 10.070312 -5.101562 9.847656 -5.09375 9.546875 -5.09375 L 5.59375 -5.09375 L 5.59375 0 L 2.34375 0 L 2.34375 -17.5 L 9.546875 -17.5 C 11.066406 -17.5 12.390625 -17.25 13.515625 -16.75 C 14.640625 -16.25 15.5 -15.53125 16.09375 -14.59375 C 16.695312 -13.664062 17 -12.5625 17 -11.28125 C 17 -9.957031 16.675781 -8.820312 16.03125 -7.875 C 15.394531 -6.925781 14.476562 -6.21875 13.28125 -5.75 L 17.296875 0 Z M 13.71875 -11.28125 C 13.71875 -12.394531 13.351562 -13.25 12.625 -13.84375 C 11.894531 -14.445312 10.820312 -14.75 9.40625 -14.75 L 5.59375 -14.75 L 5.59375 -7.78125 L 9.40625 -7.78125 C 10.820312 -7.78125 11.894531 -8.082031 12.625 -8.6875 C 13.351562 -9.289062 13.71875 -10.15625 13.71875 -11.28125 Z M 13.71875 -11.28125 "/></g></g></g><g fill="#ffffff" fill-opacity="1"><g transform="translate(241.370304, 229.041357)"><g><path d="M 15.46875 -2.71875 L 15.46875 0 L 2.34375 0 L 2.34375 -17.5 L 15.125 -17.5 L 15.125 -14.78125 L 5.59375 -14.78125 L 5.59375 -10.21875 L 14.046875 -10.21875 L 14.046875 -7.546875 L 5.59375 -7.546875 L 5.59375 -2.71875 Z M 15.46875 -2.71875 "/></g></g></g><g fill="#ffffff" fill-opacity="1"><g transform="translate(258.117656, 229.041357)"><g><path d="M 7.78125 0.25 C 6.425781 0.25 5.117188 0.0546875 3.859375 -0.328125 C 2.597656 -0.710938 1.601562 -1.21875 0.875 -1.84375 L 2 -4.375 C 2.71875 -3.8125 3.597656 -3.347656 4.640625 -2.984375 C 5.679688 -2.628906 6.726562 -2.453125 7.78125 -2.453125 C 9.070312 -2.453125 10.039062 -2.660156 10.6875 -3.078125 C 11.332031 -3.492188 11.65625 -4.039062 11.65625 -4.71875 C 11.65625 -5.21875 11.472656 -5.628906 11.109375 -5.953125 C 10.753906 -6.285156 10.300781 -6.539062 9.75 -6.71875 C 9.195312 -6.90625 8.445312 -7.113281 7.5 -7.34375 C 6.164062 -7.664062 5.085938 -7.984375 4.265625 -8.296875 C 3.441406 -8.617188 2.734375 -9.113281 2.140625 -9.78125 C 1.546875 -10.457031 1.25 -11.375 1.25 -12.53125 C 1.25 -13.488281 1.507812 -14.363281 2.03125 -15.15625 C 2.5625 -15.945312 3.351562 -16.578125 4.40625 -17.046875 C 5.46875 -17.515625 6.765625 -17.75 8.296875 -17.75 C 9.367188 -17.75 10.421875 -17.613281 11.453125 -17.34375 C 12.484375 -17.082031 13.375 -16.703125 14.125 -16.203125 L 13.09375 -13.671875 C 12.332031 -14.117188 11.535156 -14.457031 10.703125 -14.6875 C 9.867188 -14.925781 9.0625 -15.046875 8.28125 -15.046875 C 6.988281 -15.046875 6.03125 -14.828125 5.40625 -14.390625 C 4.78125 -13.960938 4.46875 -13.390625 4.46875 -12.671875 C 4.46875 -12.171875 4.644531 -11.757812 5 -11.4375 C 5.363281 -11.125 5.820312 -10.875 6.375 -10.6875 C 6.925781 -10.507812 7.675781 -10.304688 8.625 -10.078125 C 9.925781 -9.773438 10.992188 -9.460938 11.828125 -9.140625 C 12.660156 -8.816406 13.367188 -8.320312 13.953125 -7.65625 C 14.546875 -6.988281 14.84375 -6.085938 14.84375 -4.953125 C 14.84375 -3.984375 14.582031 -3.109375 14.0625 -2.328125 C 13.539062 -1.546875 12.742188 -0.921875 11.671875 -0.453125 C 10.609375 0.015625 9.3125 0.25 7.78125 0.25 Z M 7.78125 0.25 "/></g></g></g><g fill="#ffffff" fill-opacity="1"><g transform="translate(273.840165, 229.041357)"><g><path d="M 5.90625 -14.75 L 0.09375 -14.75 L 0.09375 -17.5 L 14.953125 -17.5 L 14.953125 -14.75 L 9.15625 -14.75 L 9.15625 0 L 5.90625 0 Z M 5.90625 -14.75 "/></g></g></g><g fill="#ffffff" fill-opacity="1"><g transform="translate(132.75045, 242.734206)"><g><path d="M 5.296875 -5.015625 L 5.296875 0 L 4.65625 0 L 4.65625 -3.953125 L 3.234375 -1 L 2.640625 -1 L 1.21875 -3.953125 L 1.21875 0 L 0.578125 0 L 0.578125 -5.015625 L 1.4375 -5.015625 L 2.953125 -1.828125 L 4.484375 -5.015625 Z M 5.296875 -5.015625 "/></g></g></g><g fill="#ffffff" fill-opacity="1"><g transform="translate(142.631452, 242.734206)"><g><path d="M 3.90625 -0.640625 L 3.90625 0 L 0.578125 0 L 0.578125 -5.015625 L 3.828125 -5.015625 L 3.828125 -4.40625 L 1.25 -4.40625 L 1.25 -2.859375 L 3.53125 -2.859375 L 3.53125 -2.265625 L 1.25 -2.265625 L 1.25 -0.640625 Z M 3.90625 -0.640625 "/></g></g></g><g fill="#ffffff" fill-opacity="1"><g transform="translate(150.816275, 242.734206)"><g><path d="M 2.03125 0 L 0.578125 0 L 0.578125 -5.015625 L 2.03125 -5.015625 C 2.539062 -5.015625 2.945312 -4.972656 3.25 -4.890625 C 3.550781 -4.804688 3.789062 -4.671875 3.96875 -4.484375 C 4.15625 -4.296875 4.289062 -4.039062 4.375 -3.71875 C 4.457031 -3.40625 4.5 -3.003906 4.5 -2.515625 C 4.5 -1.640625 4.300781 -1 3.90625 -0.59375 C 3.519531 -0.195312 2.894531 0 2.03125 0 Z M 3.46875 -3.984375 C 3.34375 -4.128906 3.171875 -4.234375 2.953125 -4.296875 C 2.734375 -4.367188 2.425781 -4.40625 2.03125 -4.40625 L 1.25 -4.40625 L 1.25 -0.640625 L 2.03125 -0.640625 C 2.695312 -0.640625 3.15625 -0.78125 3.40625 -1.0625 C 3.664062 -1.34375 3.796875 -1.828125 3.796875 -2.515625 C 3.796875 -2.890625 3.769531 -3.191406 3.71875 -3.421875 C 3.664062 -3.660156 3.582031 -3.847656 3.46875 -3.984375 Z M 3.46875 -3.984375 "/></g></g></g><g fill="#ffffff" fill-opacity="1"><g transform="translate(159.665164, 242.734206)"><g><path d="M 1.25 -5.015625 L 1.25 0 L 0.578125 0 L 0.578125 -5.015625 Z M 1.25 -5.015625 "/></g></g></g><g fill="#ffffff" fill-opacity="1"><g transform="translate(165.497739, 242.734206)"><g><path d="M 2.5625 -0.578125 C 2.78125 -0.578125 3.007812 -0.601562 3.25 -0.65625 C 3.5 -0.707031 3.726562 -0.773438 3.9375 -0.859375 L 3.9375 -0.25 C 3.644531 -0.132812 3.382812 -0.0507812 3.15625 0 C 2.925781 0.0390625 2.691406 0.0625 2.453125 0.0625 C 1.679688 0.0625 1.140625 -0.132812 0.828125 -0.53125 C 0.515625 -0.925781 0.359375 -1.585938 0.359375 -2.515625 C 0.359375 -3.410156 0.539062 -4.0625 0.90625 -4.46875 C 1.269531 -4.882812 1.847656 -5.09375 2.640625 -5.09375 C 2.890625 -5.09375 3.109375 -5.085938 3.296875 -5.078125 C 3.492188 -5.066406 3.671875 -5.050781 3.828125 -5.03125 L 3.828125 -4.421875 C 3.640625 -4.441406 3.445312 -4.457031 3.25 -4.46875 C 3.0625 -4.476562 2.859375 -4.484375 2.640625 -4.484375 C 2.046875 -4.484375 1.628906 -4.332031 1.390625 -4.03125 C 1.160156 -3.738281 1.046875 -3.234375 1.046875 -2.515625 C 1.046875 -1.796875 1.148438 -1.289062 1.359375 -1 C 1.578125 -0.71875 1.976562 -0.578125 2.5625 -0.578125 Z M 2.5625 -0.578125 "/></g></g></g><g fill="#ffffff" fill-opacity="1"><g transform="translate(173.64256, 242.734206)"><g><path d="M 0.78125 0 L 0.0625 0 L 2.046875 -5.015625 L 2.75 -5.015625 L 4.71875 0 L 3.984375 0 L 3.53125 -1.203125 L 1.234375 -1.203125 Z M 2.390625 -4.390625 C 2.328125 -4.203125 2.257812 -4.003906 2.1875 -3.796875 C 2.125 -3.585938 2.050781 -3.378906 1.96875 -3.171875 L 1.46875 -1.8125 L 3.3125 -1.8125 L 2.796875 -3.171875 C 2.691406 -3.460938 2.609375 -3.695312 2.546875 -3.875 C 2.484375 -4.0625 2.429688 -4.234375 2.390625 -4.390625 Z M 2.390625 -4.390625 "/></g></g></g><g fill="#ffffff" fill-opacity="1"><g transform="translate(182.427448, 242.734206)"><g><path d="M 3.640625 -0.640625 L 3.640625 0 L 0.578125 0 L 0.578125 -5.015625 L 1.25 -5.015625 L 1.25 -0.640625 Z M 3.640625 -0.640625 "/></g></g></g><g fill="#ffffff" fill-opacity="1"><g transform="translate(190.204232, 242.734206)"><g/></g></g><g fill="#ffffff" fill-opacity="1"><g transform="translate(195.572763, 242.734206)"><g><path d="M 2.5625 -0.578125 C 2.78125 -0.578125 3.007812 -0.601562 3.25 -0.65625 C 3.5 -0.707031 3.726562 -0.773438 3.9375 -0.859375 L 3.9375 -0.25 C 3.644531 -0.132812 3.382812 -0.0507812 3.15625 0 C 2.925781 0.0390625 2.691406 0.0625 2.453125 0.0625 C 1.679688 0.0625 1.140625 -0.132812 0.828125 -0.53125 C 0.515625 -0.925781 0.359375 -1.585938 0.359375 -2.515625 C 0.359375 -3.410156 0.539062 -4.0625 0.90625 -4.46875 C 1.269531 -4.882812 1.847656 -5.09375 2.640625 -5.09375 C 2.890625 -5.09375 3.109375 -5.085938 3.296875 -5.078125 C 3.492188 -5.066406 3.671875 -5.050781 3.828125 -5.03125 L 3.828125 -4.421875 C 3.640625 -4.441406 3.445312 -4.457031 3.25 -4.46875 C 3.0625 -4.476562 2.859375 -4.484375 2.640625 -4.484375 C 2.046875 -4.484375 1.628906 -4.332031 1.390625 -4.03125 C 1.160156 -3.738281 1.046875 -3.234375 1.046875 -2.515625 C 1.046875 -1.796875 1.148438 -1.289062 1.359375 -1 C 1.578125 -0.71875 1.976562 -0.578125 2.5625 -0.578125 Z M 2.5625 -0.578125 "/></g></g></g><g fill="#ffffff" fill-opacity="1"><g transform="translate(203.717584, 242.734206)"><g><path d="M 3.90625 -0.640625 L 3.90625 0 L 0.578125 0 L 0.578125 -5.015625 L 3.828125 -5.015625 L 3.828125 -4.40625 L 1.25 -4.40625 L 1.25 -2.859375 L 3.53125 -2.859375 L 3.53125 -2.265625 L 1.25 -2.265625 L 1.25 -0.640625 Z M 3.90625 -0.640625 "/></g></g></g><g fill="#ffffff" fill-opacity="1"><g transform="translate(211.902407, 242.734206)"><g><path d="M 4.6875 -5.015625 L 4.6875 0 L 3.984375 0 L 1.21875 -3.90625 L 1.21875 0 L 0.578125 0 L 0.578125 -5.015625 L 1.265625 -5.015625 L 4.046875 -1.0625 L 4.046875 -5.015625 Z M 4.6875 -5.015625 "/></g></g></g><g fill="#ffffff" fill-opacity="1"><g transform="translate(221.159335, 242.734206)"><g><path d="M 4.125 -5.015625 L 4.125 -4.40625 L 2.46875 -4.40625 L 2.46875 0 L 1.78125 0 L 1.78125 -4.40625 L 0.125 -4.40625 L 0.125 -5.015625 Z M 4.125 -5.015625 "/></g></g></g><g fill="#ffffff" fill-opacity="1"><g transform="translate(229.40816, 242.734206)"><g><path d="M 3.90625 -0.640625 L 3.90625 0 L 0.578125 0 L 0.578125 -5.015625 L 3.828125 -5.015625 L 3.828125 -4.40625 L 1.25 -4.40625 L 1.25 -2.859375 L 3.53125 -2.859375 L 3.53125 -2.265625 L 1.25 -2.265625 L 1.25 -0.640625 Z M 3.90625 -0.640625 "/></g></g></g><g fill="#ffffff" fill-opacity="1"><g transform="translate(237.592983, 242.734206)"><g><path d="M 1.25 -1.796875 L 1.25 0 L 0.578125 0 L 0.578125 -5.015625 L 2.28125 -5.015625 C 2.988281 -5.015625 3.492188 -4.890625 3.796875 -4.640625 C 4.109375 -4.398438 4.265625 -4.003906 4.265625 -3.453125 C 4.265625 -3.015625 4.164062 -2.664062 3.96875 -2.40625 C 3.78125 -2.144531 3.488281 -1.96875 3.09375 -1.875 L 4.40625 0 L 3.578125 0 L 2.375 -1.796875 Z M 3.578125 -3.453125 C 3.578125 -3.785156 3.476562 -4.023438 3.28125 -4.171875 C 3.082031 -4.328125 2.75 -4.40625 2.28125 -4.40625 L 1.25 -4.40625 L 1.25 -2.40625 L 2.28125 -2.40625 C 2.738281 -2.40625 3.066406 -2.484375 3.265625 -2.640625 C 3.472656 -2.804688 3.578125 -3.078125 3.578125 -3.453125 Z M 3.578125 -3.453125 "/></g></g></g></svg>