<svg xmlns="http://www.w3.org/2000/svg" xmlns:xlink="http://www.w3.org/1999/xlink" width="200" zoomAndPan="magnify" viewBox="0 0 150 74.999997" height="100" preserveAspectRatio="xMidYMid meet" version="1.0"><defs><g/><clipPath id="03420e3536"><path d="M 1 1 L 54.75 1 L 54.75 62 L 1 62 Z M 1 1 " clip-rule="nonzero"/></clipPath></defs><g clip-path="url(#03420e3536)"><path fill="#ffffff" d="M 50.527344 4.839844 C 48.125 2.554688 44.90625 1.277344 41.589844 1.289062 C 38.164062 1.300781 34.945312 2.640625 32.523438 5.0625 L 27.902344 9.683594 L 23.398438 5.179688 C 18.382812 0.164062 10.210938 0.00390625 5.144531 4.972656 C 0.0273438 9.992188 -0.00390625 18.238281 5.054688 23.292969 L 29.519531 47.757812 C 32.308594 50.550781 32.441406 55.097656 29.703125 57.941406 C 26.902344 60.851562 22.25 60.886719 19.40625 58.042969 L 13.347656 51.980469 C 13.089844 51.726562 13.066406 51.320312 13.285156 51.03125 C 14.179688 49.855469 14.675781 48.359375 14.5625 46.75 C 14.347656 43.566406 11.746094 41.007812 8.558594 40.84375 C 4.871094 40.648438 1.8125 43.621094 1.859375 47.277344 C 1.90625 50.667969 4.667969 53.464844 8.054688 53.550781 C 9.148438 53.578125 10.179688 53.328125 11.089844 52.867188 C 11.363281 52.726562 11.699219 52.785156 11.917969 53.003906 L 18.179688 59.265625 C 19.921875 61.007812 22.210938 61.878906 24.5 61.878906 C 26.792969 61.878906 29.082031 61.007812 30.824219 59.265625 C 34.3125 55.777344 34.3125 50.105469 30.824219 46.617188 L 6.277344 22.066406 C 1.929688 17.71875 1.929688 10.640625 6.277344 6.289062 C 10.628906 1.941406 17.707031 1.941406 22.058594 6.289062 L 27.269531 11.5 C 27.441406 11.675781 27.675781 11.757812 27.902344 11.75 C 28.132812 11.757812 28.363281 11.675781 28.539062 11.5 L 33.644531 6.394531 C 35.765625 4.277344 38.621094 3.027344 41.617188 3.023438 C 44.605469 3.015625 47.417969 4.175781 49.527344 6.289062 C 51.640625 8.402344 52.800781 11.207031 52.796875 14.195312 C 52.792969 17.191406 51.542969 20.054688 49.425781 22.171875 L 47.773438 23.824219 C 47.640625 23.960938 47.453125 24.035156 47.261719 24.035156 L 42.34375 24.035156 C 42.070312 24.035156 41.816406 23.882812 41.695312 23.636719 L 39.320312 18.882812 C 39.054688 18.351562 38.292969 18.351562 38.027344 18.882812 L 33.945312 27.046875 C 33.679688 27.578125 32.917969 27.578125 32.652344 27.046875 L 31.257812 24.253906 C 30.992188 23.722656 30.234375 23.722656 29.96875 24.253906 L 28.574219 27.042969 C 28.308594 27.578125 27.546875 27.578125 27.28125 27.042969 L 23.199219 18.882812 C 22.933594 18.347656 22.175781 18.347656 21.910156 18.882812 L 19.535156 23.632812 C 19.410156 23.878906 19.160156 24.03125 18.886719 24.03125 L 14.535156 24.03125 C 14.058594 24.03125 13.644531 24.398438 13.632812 24.875 C 13.617188 25.363281 14.007812 25.765625 14.496094 25.765625 L 19.960938 25.765625 C 20.234375 25.765625 20.484375 25.609375 20.605469 25.367188 L 21.910156 22.753906 C 22.175781 22.222656 22.933594 22.222656 23.199219 22.753906 L 27.28125 30.917969 C 27.546875 31.453125 28.308594 31.453125 28.574219 30.917969 L 29.96875 28.128906 C 30.234375 27.597656 30.992188 27.597656 31.257812 28.128906 L 32.652344 30.921875 C 32.917969 31.453125 33.679688 31.453125 33.945312 30.921875 L 38.027344 22.757812 C 38.292969 22.226562 39.050781 22.222656 39.316406 22.757812 L 40.625 25.367188 C 40.746094 25.613281 40.996094 25.765625 41.269531 25.765625 L 47.921875 25.765625 C 47.972656 25.765625 48.027344 25.761719 48.078125 25.753906 C 48.078125 25.753906 48.085938 25.75 48.085938 25.75 C 48.136719 25.742188 48.1875 25.726562 48.234375 25.707031 C 48.238281 25.707031 48.246094 25.703125 48.25 25.703125 C 48.296875 25.683594 48.34375 25.660156 48.386719 25.632812 C 48.390625 25.628906 48.394531 25.628906 48.398438 25.625 C 48.445312 25.59375 48.488281 25.558594 48.527344 25.519531 C 48.53125 25.515625 48.53125 25.515625 48.53125 25.515625 L 50.628906 23.417969 C 53.109375 20.9375 54.558594 17.578125 54.527344 14.070312 C 54.5 10.5625 53.078125 7.273438 50.527344 4.839844 Z M 3.59375 47.191406 C 3.59375 44.640625 5.671875 42.566406 8.21875 42.566406 C 10.769531 42.566406 12.847656 44.640625 12.847656 47.191406 C 12.847656 49.742188 10.769531 51.816406 8.21875 51.816406 C 5.671875 51.816406 3.59375 49.742188 3.59375 47.191406 Z M 3.59375 47.191406 " fill-opacity="1" fill-rule="nonzero"/></g><g fill="#ffffff" fill-opacity="1"><g transform="translate(58.135769, 28.469626)"><g><path d="M 6.609375 -12.296875 C 8.171875 -12.296875 9.394531 -11.921875 10.28125 -11.171875 C 11.175781 -10.421875 11.625 -9.390625 11.625 -8.078125 C 11.625 -6.765625 11.175781 -5.734375 10.28125 -4.984375 C 9.394531 -4.242188 8.171875 -3.875 6.609375 -3.875 L 3.296875 -3.875 L 3.296875 0 L 2 0 L 2 -12.296875 Z M 6.5625 -5.015625 C 7.78125 -5.015625 8.710938 -5.28125 9.359375 -5.8125 C 10.003906 -6.351562 10.328125 -7.109375 10.328125 -8.078125 C 10.328125 -9.078125 10.003906 -9.84375 9.359375 -10.375 C 8.710938 -10.90625 7.78125 -11.171875 6.5625 -11.171875 L 3.296875 -11.171875 L 3.296875 -5.015625 Z M 6.5625 -5.015625 "/></g></g></g><g fill="#ffffff" fill-opacity="1"><g transform="translate(70.742107, 28.469626)"><g><path d="M 9.71875 -3.28125 L 2.859375 -3.28125 L 1.390625 0 L 0.03125 0 L 5.65625 -12.296875 L 6.9375 -12.296875 L 12.5625 0 L 11.1875 0 Z M 9.234375 -4.34375 L 6.28125 -10.9375 L 3.34375 -4.34375 Z M 9.234375 -4.34375 "/></g></g></g><g fill="#ffffff" fill-opacity="1"><g transform="translate(83.330891, 28.469626)"><g><path d="M 4.390625 -11.171875 L 0.0625 -11.171875 L 0.0625 -12.296875 L 10.015625 -12.296875 L 10.015625 -11.171875 L 5.6875 -11.171875 L 5.6875 0 L 4.390625 0 Z M 4.390625 -11.171875 "/></g></g></g><g fill="#ffffff" fill-opacity="1"><g transform="translate(93.408939, 28.469626)"><g><path d="M 2 -12.296875 L 3.296875 -12.296875 L 3.296875 0 L 2 0 Z M 2 -12.296875 "/></g></g></g><g fill="#ffffff" fill-opacity="1"><g transform="translate(98.711329, 28.469626)"><g><path d="M 10.703125 -1.125 L 10.703125 0 L 2 0 L 2 -12.296875 L 10.4375 -12.296875 L 10.4375 -11.171875 L 3.296875 -11.171875 L 3.296875 -6.796875 L 9.65625 -6.796875 L 9.65625 -5.6875 L 3.296875 -5.6875 L 3.296875 -1.125 Z M 10.703125 -1.125 "/></g></g></g><g fill="#ffffff" fill-opacity="1"><g transform="translate(110.457347, 28.469626)"><g><path d="M 12.28125 -12.296875 L 12.28125 0 L 11.203125 0 L 3.296875 -9.96875 L 3.296875 0 L 2 0 L 2 -12.296875 L 3.078125 -12.296875 L 11 -2.3125 L 11 -12.296875 Z M 12.28125 -12.296875 "/></g></g></g><g fill="#ffffff" fill-opacity="1"><g transform="translate(124.731654, 28.469626)"><g><path d="M 4.390625 -11.171875 L 0.0625 -11.171875 L 0.0625 -12.296875 L 10.015625 -12.296875 L 10.015625 -11.171875 L 5.6875 -11.171875 L 5.6875 0 L 4.390625 0 Z M 4.390625 -11.171875 "/></g></g></g><g fill="#ffffff" fill-opacity="1"><g transform="translate(58.135769, 45.757112)"><g><path d="M 7.34375 0.109375 C 6.125 0.109375 5.023438 -0.160156 4.046875 -0.703125 C 3.066406 -1.242188 2.296875 -1.988281 1.734375 -2.9375 C 1.179688 -3.894531 0.90625 -4.960938 0.90625 -6.140625 C 0.90625 -7.328125 1.179688 -8.394531 1.734375 -9.34375 C 2.296875 -10.300781 3.066406 -11.050781 4.046875 -11.59375 C 5.035156 -12.132812 6.140625 -12.40625 7.359375 -12.40625 C 8.273438 -12.40625 9.117188 -12.25 9.890625 -11.9375 C 10.660156 -11.632812 11.316406 -11.191406 11.859375 -10.609375 L 11.03125 -9.78125 C 10.070312 -10.75 8.859375 -11.234375 7.390625 -11.234375 C 6.421875 -11.234375 5.535156 -11.007812 4.734375 -10.5625 C 3.941406 -10.125 3.316406 -9.519531 2.859375 -8.75 C 2.410156 -7.976562 2.1875 -7.109375 2.1875 -6.140625 C 2.1875 -5.179688 2.410156 -4.316406 2.859375 -3.546875 C 3.316406 -2.773438 3.941406 -2.164062 4.734375 -1.71875 C 5.535156 -1.269531 6.421875 -1.046875 7.390625 -1.046875 C 8.867188 -1.046875 10.082031 -1.539062 11.03125 -2.53125 L 11.859375 -1.703125 C 11.316406 -1.117188 10.65625 -0.671875 9.875 -0.359375 C 9.101562 -0.046875 8.257812 0.109375 7.34375 0.109375 Z M 7.34375 0.109375 "/></g></g></g><g fill="#ffffff" fill-opacity="1"><g transform="translate(70.759668, 45.757112)"><g><path d="M 10.390625 0 L 7.59375 -3.953125 C 7.269531 -3.921875 6.941406 -3.90625 6.609375 -3.90625 L 3.296875 -3.90625 L 3.296875 0 L 2 0 L 2 -12.296875 L 6.609375 -12.296875 C 8.171875 -12.296875 9.394531 -11.921875 10.28125 -11.171875 C 11.175781 -10.421875 11.625 -9.390625 11.625 -8.078125 C 11.625 -7.117188 11.378906 -6.304688 10.890625 -5.640625 C 10.410156 -4.984375 9.71875 -4.507812 8.8125 -4.21875 L 11.8125 0 Z M 6.5625 -5 C 7.78125 -5 8.710938 -5.269531 9.359375 -5.8125 C 10.003906 -6.351562 10.328125 -7.109375 10.328125 -8.078125 C 10.328125 -9.078125 10.003906 -9.84375 9.359375 -10.375 C 8.710938 -10.90625 7.78125 -11.171875 6.5625 -11.171875 L 3.296875 -11.171875 L 3.296875 -5 Z M 6.5625 -5 "/></g></g></g><g fill="#ffffff" fill-opacity="1"><g transform="translate(83.453796, 45.757112)"><g><path d="M 10.703125 -1.125 L 10.703125 0 L 2 0 L 2 -12.296875 L 10.4375 -12.296875 L 10.4375 -11.171875 L 3.296875 -11.171875 L 3.296875 -6.796875 L 9.65625 -6.796875 L 9.65625 -5.6875 L 3.296875 -5.6875 L 3.296875 -1.125 Z M 10.703125 -1.125 "/></g></g></g><g fill="#ffffff" fill-opacity="1"><g transform="translate(95.199814, 45.757112)"><g><path d="M 5.390625 0.109375 C 4.472656 0.109375 3.597656 -0.0351562 2.765625 -0.328125 C 1.929688 -0.617188 1.285156 -1.007812 0.828125 -1.5 L 1.328125 -2.5 C 1.773438 -2.050781 2.367188 -1.6875 3.109375 -1.40625 C 3.847656 -1.132812 4.609375 -1 5.390625 -1 C 6.492188 -1 7.316406 -1.203125 7.859375 -1.609375 C 8.410156 -2.015625 8.6875 -2.535156 8.6875 -3.171875 C 8.6875 -3.671875 8.535156 -4.066406 8.234375 -4.359375 C 7.941406 -4.648438 7.578125 -4.875 7.140625 -5.03125 C 6.710938 -5.1875 6.113281 -5.359375 5.34375 -5.546875 C 4.414062 -5.785156 3.675781 -6.007812 3.125 -6.21875 C 2.570312 -6.4375 2.097656 -6.769531 1.703125 -7.21875 C 1.316406 -7.664062 1.125 -8.269531 1.125 -9.03125 C 1.125 -9.644531 1.285156 -10.207031 1.609375 -10.71875 C 1.941406 -11.226562 2.445312 -11.632812 3.125 -11.9375 C 3.800781 -12.25 4.644531 -12.40625 5.65625 -12.40625 C 6.351562 -12.40625 7.039062 -12.304688 7.71875 -12.109375 C 8.394531 -11.910156 8.976562 -11.644531 9.46875 -11.3125 L 9.03125 -10.28125 C 8.507812 -10.613281 7.957031 -10.863281 7.375 -11.03125 C 6.789062 -11.207031 6.21875 -11.296875 5.65625 -11.296875 C 4.582031 -11.296875 3.769531 -11.085938 3.21875 -10.671875 C 2.675781 -10.253906 2.40625 -9.71875 2.40625 -9.0625 C 2.40625 -8.570312 2.550781 -8.175781 2.84375 -7.875 C 3.144531 -7.570312 3.519531 -7.34375 3.96875 -7.1875 C 4.425781 -7.03125 5.035156 -6.859375 5.796875 -6.671875 C 6.691406 -6.453125 7.414062 -6.234375 7.96875 -6.015625 C 8.53125 -5.796875 9.003906 -5.46875 9.390625 -5.03125 C 9.773438 -4.59375 9.96875 -4 9.96875 -3.25 C 9.96875 -2.625 9.800781 -2.054688 9.46875 -1.546875 C 9.132812 -1.046875 8.625 -0.644531 7.9375 -0.34375 C 7.25 -0.0390625 6.398438 0.109375 5.390625 0.109375 Z M 5.390625 0.109375 "/></g></g></g><g fill="#ffffff" fill-opacity="1"><g transform="translate(105.997723, 45.757112)"><g><path d="M 4.390625 -11.171875 L 0.0625 -11.171875 L 0.0625 -12.296875 L 10.015625 -12.296875 L 10.015625 -11.171875 L 5.6875 -11.171875 L 5.6875 0 L 4.390625 0 Z M 4.390625 -11.171875 "/></g></g></g></svg>